<mxfile host="Electron" agent="Mozilla/5.0 (Windows NT 10.0; Win64; x64) AppleWebKit/537.36 (KHTML, like Gecko) draw.io/28.1.2 Chrome/138.0.7204.243 Electron/37.4.0 Safari/537.36" version="28.1.2">
  <diagram name="Seite-1" id="qLtpq4r598Eb0vKFgCos">
    <mxGraphModel dx="1426" dy="841" grid="1" gridSize="10" guides="1" tooltips="1" connect="1" arrows="1" fold="1" page="1" pageScale="1" pageWidth="827" pageHeight="1169" math="0" shadow="0">
      <root>
        <mxCell id="0" />
        <mxCell id="1" parent="0" />
        <mxCell id="YJfmNgXjkh2zvaOiM6-I-6" value="" style="edgeStyle=orthogonalEdgeStyle;rounded=0;orthogonalLoop=1;jettySize=auto;html=1;" edge="1" parent="1" source="YJfmNgXjkh2zvaOiM6-I-1" target="YJfmNgXjkh2zvaOiM6-I-2">
          <mxGeometry relative="1" as="geometry" />
        </mxCell>
        <mxCell id="YJfmNgXjkh2zvaOiM6-I-1" value="Start" style="ellipse;whiteSpace=wrap;html=1;aspect=fixed;" vertex="1" parent="1">
          <mxGeometry x="100" y="70" width="80" height="80" as="geometry" />
        </mxCell>
        <mxCell id="YJfmNgXjkh2zvaOiM6-I-7" value="" style="edgeStyle=orthogonalEdgeStyle;rounded=0;orthogonalLoop=1;jettySize=auto;html=1;" edge="1" parent="1" source="YJfmNgXjkh2zvaOiM6-I-2" target="YJfmNgXjkh2zvaOiM6-I-3">
          <mxGeometry relative="1" as="geometry" />
        </mxCell>
        <mxCell id="YJfmNgXjkh2zvaOiM6-I-2" value="Input: Number 1 +&amp;nbsp;Number 2" style="shape=parallelogram;perimeter=parallelogramPerimeter;whiteSpace=wrap;html=1;fixedSize=1;" vertex="1" parent="1">
          <mxGeometry x="18.75" y="210" width="242.5" height="90" as="geometry" />
        </mxCell>
        <mxCell id="YJfmNgXjkh2zvaOiM6-I-8" value="" style="edgeStyle=orthogonalEdgeStyle;rounded=0;orthogonalLoop=1;jettySize=auto;html=1;" edge="1" parent="1" source="YJfmNgXjkh2zvaOiM6-I-3" target="YJfmNgXjkh2zvaOiM6-I-4">
          <mxGeometry relative="1" as="geometry" />
        </mxCell>
        <mxCell id="YJfmNgXjkh2zvaOiM6-I-3" value="Perform the addition&lt;div&gt;Sum = Number1 + Number2&lt;/div&gt;" style="rounded=0;whiteSpace=wrap;html=1;" vertex="1" parent="1">
          <mxGeometry x="37.5" y="370" width="205" height="100" as="geometry" />
        </mxCell>
        <mxCell id="YJfmNgXjkh2zvaOiM6-I-9" value="" style="edgeStyle=orthogonalEdgeStyle;rounded=0;orthogonalLoop=1;jettySize=auto;html=1;" edge="1" parent="1" source="YJfmNgXjkh2zvaOiM6-I-4" target="YJfmNgXjkh2zvaOiM6-I-5">
          <mxGeometry relative="1" as="geometry" />
        </mxCell>
        <mxCell id="YJfmNgXjkh2zvaOiM6-I-4" value="Output Sum" style="shape=parallelogram;perimeter=parallelogramPerimeter;whiteSpace=wrap;html=1;fixedSize=1;" vertex="1" parent="1">
          <mxGeometry x="25" y="540" width="230" height="90" as="geometry" />
        </mxCell>
        <mxCell id="YJfmNgXjkh2zvaOiM6-I-5" value="END" style="ellipse;whiteSpace=wrap;html=1;aspect=fixed;" vertex="1" parent="1">
          <mxGeometry x="100" y="710" width="80" height="80" as="geometry" />
        </mxCell>
        <mxCell id="YJfmNgXjkh2zvaOiM6-I-11" value="&lt;font style=&quot;font-size: 18px;&quot;&gt;PS Code&lt;/font&gt;&lt;div&gt;&lt;font style=&quot;font-size: 18px;&quot;&gt;&lt;br&gt;&lt;/font&gt;&lt;/div&gt;&lt;div&gt;&lt;font style=&quot;font-size: 18px;&quot;&gt;Start&lt;/font&gt;&lt;/div&gt;&lt;div&gt;&lt;font style=&quot;font-size: 18px;&quot;&gt;&lt;span style=&quot;white-space: pre;&quot;&gt;&#x9;&lt;/span&gt;#enter Numbers&lt;br&gt;&lt;/font&gt;&lt;/div&gt;&lt;div&gt;&lt;font style=&quot;font-size: 18px;&quot;&gt;&amp;nbsp;&lt;span style=&quot;white-space: pre;&quot;&gt;&#x9;&lt;/span&gt;Input : Number 1&lt;/font&gt;&lt;/div&gt;&lt;div&gt;&lt;font style=&quot;font-size: 18px;&quot;&gt;&lt;span style=&quot;white-space: pre;&quot;&gt;&#x9;&lt;/span&gt;Input: Number 2&lt;br&gt;&lt;/font&gt;&lt;/div&gt;&lt;div&gt;&lt;font style=&quot;font-size: 18px;&quot;&gt;&lt;br&gt;&lt;/font&gt;&lt;/div&gt;&lt;div&gt;&lt;font style=&quot;font-size: 18px;&quot;&gt;&lt;span style=&quot;white-space: pre;&quot;&gt;&#x9;&lt;/span&gt;#add Number 1 and Number 2&lt;br&gt;&lt;/font&gt;&lt;/div&gt;&lt;div&gt;&lt;font style=&quot;font-size: 18px;&quot;&gt;&lt;span style=&quot;white-space: pre;&quot;&gt;&#x9;&lt;/span&gt;Sum = Number1 + Number 2&lt;br&gt;&lt;/font&gt;&lt;/div&gt;&lt;div&gt;&lt;font style=&quot;font-size: 18px;&quot;&gt;&lt;br&gt;&lt;/font&gt;&lt;/div&gt;&lt;div&gt;&lt;font style=&quot;font-size: 18px;&quot;&gt;&lt;span style=&quot;white-space: pre;&quot;&gt;&#x9;&lt;/span&gt;#Output&lt;br&gt;&lt;/font&gt;&lt;/div&gt;&lt;div&gt;&lt;font style=&quot;font-size: 18px;&quot;&gt;&lt;span style=&quot;white-space: pre;&quot;&gt;&#x9;&lt;/span&gt;Output result&lt;br&gt;&lt;/font&gt;&lt;/div&gt;&lt;div&gt;&lt;font style=&quot;font-size: 18px;&quot;&gt;End&lt;/font&gt;&lt;/div&gt;" style="text;html=1;align=left;verticalAlign=top;whiteSpace=wrap;rounded=0;" vertex="1" parent="1">
          <mxGeometry x="330" y="160" width="380" height="320" as="geometry" />
        </mxCell>
      </root>
    </mxGraphModel>
  </diagram>
</mxfile>
